<?xml version="1.0" encoding="utf-8"?>
<!-- Generator: Adobe Illustrator 21.0.0, SVG Export Plug-In . SVG Version: 6.00 Build 0)  -->
<svg version="1.1" id="Layer_1" xmlns="http://www.w3.org/2000/svg" xmlns:xlink="http://www.w3.org/1999/xlink" x="0px" y="0px"
	 viewBox="0 0 356 250" style="enable-background:new 0 0 356 250;" xml:space="preserve">
<style type="text/css">
	.st0{fill:#116DAD;}
	.st1{fill:#116CAD;}
</style>
<g>
	<path class="st0" d="M0,210.1h23.6c4.1,0,7.4,0.8,9.8,2.5c2.4,1.7,3.6,4.1,3.6,7.4c0,1.6-0.3,3-0.9,4.1c-0.6,1.1-1.3,2.1-2.2,2.8
		c-0.9,0.7-1.8,1.3-2.7,1.7c-1,0.4-1.8,0.7-2.5,0.8v0.5c0.7,0.1,1.6,0.2,2.7,0.5c1.1,0.3,2.1,0.7,3.1,1.4c1,0.7,1.8,1.6,2.5,2.7
		c0.7,1.2,1,2.7,1,4.6c0,1.9-0.4,3.5-1.2,4.8c-0.8,1.3-1.8,2.3-3.1,3.1s-2.8,1.4-4.6,1.7c-1.7,0.4-3.5,0.5-5.5,0.5H0V241h3v-22.6H0
		V210.1z M19.8,226.6c1,0,1.7-0.3,2.2-0.8c0.5-0.5,0.7-1.3,0.7-2.5v-1.8c0-1.1-0.2-2-0.7-2.5c-0.5-0.5-1.2-0.8-2.2-0.8h-2.7v8.3
		H19.8z M20.2,241c1,0,1.7-0.3,2.2-0.8c0.5-0.5,0.7-1.3,0.7-2.5v-2.2c0-1.1-0.2-2-0.7-2.5c-0.5-0.5-1.2-0.8-2.2-0.8h-3.1v8.7H20.2z"
		/>
	<path class="st0" d="M78.2,229.7c0,3.7-0.5,6.8-1.4,9.4c-0.9,2.6-2.2,4.7-3.8,6.3c-1.7,1.6-3.7,2.8-6.1,3.5c-2.4,0.7-5,1.1-8,1.1
		c-2.9,0-5.6-0.4-8-1.1c-2.4-0.7-4.4-1.9-6.1-3.5s-2.9-3.7-3.8-6.3c-0.9-2.6-1.4-5.7-1.4-9.4c0-3.7,0.5-6.8,1.4-9.4
		c0.9-2.6,2.2-4.7,3.8-6.3s3.7-2.8,6.1-3.5c2.4-0.7,5-1.1,8-1.1c2.9,0,5.6,0.4,8,1.1c2.4,0.7,4.4,1.9,6.1,3.5
		c1.7,1.6,2.9,3.7,3.8,6.3C77.7,222.9,78.2,226.1,78.2,229.7z M58.9,241c1.1,0,2-0.3,2.6-0.9c0.6-0.6,0.9-1.5,0.9-2.8v-15.2
		c0-1.3-0.3-2.3-0.9-2.8c-0.6-0.6-1.4-0.9-2.6-0.9c-1.1,0-2,0.3-2.6,0.9c-0.6,0.6-0.9,1.5-0.9,2.8v15.2c0,1.3,0.3,2.3,0.9,2.8
		C56.9,240.7,57.8,241,58.9,241z"/>
	<path class="st0" d="M118.3,229.7c0,3.7-0.5,6.8-1.4,9.4c-0.9,2.6-2.2,4.7-3.8,6.3c-1.7,1.6-3.7,2.8-6.1,3.5c-2.4,0.7-5,1.1-8,1.1
		c-2.9,0-5.6-0.4-8-1.1c-2.4-0.7-4.4-1.9-6.1-3.5c-1.7-1.6-2.9-3.7-3.8-6.3c-0.9-2.6-1.4-5.7-1.4-9.4c0-3.7,0.5-6.8,1.4-9.4
		c0.9-2.6,2.2-4.7,3.8-6.3c1.7-1.6,3.7-2.8,6.1-3.5c2.4-0.7,5-1.1,8-1.1c2.9,0,5.6,0.4,8,1.1c2.4,0.7,4.4,1.9,6.1,3.5
		c1.7,1.6,2.9,3.7,3.8,6.3C117.9,222.9,118.3,226.1,118.3,229.7z M99.1,241c1.1,0,2-0.3,2.6-0.9c0.6-0.6,0.9-1.5,0.9-2.8v-15.2
		c0-1.3-0.3-2.3-0.9-2.8c-0.6-0.6-1.4-0.9-2.6-0.9c-1.1,0-2,0.3-2.6,0.9c-0.6,0.6-0.9,1.5-0.9,2.8v15.2c0,1.3,0.3,2.3,0.9,2.8
		C97.1,240.7,97.9,241,99.1,241z"/>
	<path class="st0" d="M157.1,218.4l-7.9,10.2l8.7,12.5h2v8.3h-15l-8-13.8v13.8h-17.1V241h3v-22.6h-3v-8.3h17.1v13.5l9.2-13.5h13v8.3
		H157.1z"/>
	<path class="st0" d="M176.2,240.3c1.1,0,1.9-0.2,2.4-0.5c0.5-0.3,0.7-0.8,0.7-1.5c0-0.5-0.2-0.9-0.6-1.2c-0.4-0.4-1.2-0.8-2.3-1.2
		c-2.5-0.9-4.7-1.8-6.5-2.7c-1.9-0.9-3.4-1.8-4.6-2.8c-1.2-1-2.1-2.3-2.7-3.6c-0.6-1.4-0.9-3.1-0.9-5.1c0-1.9,0.3-3.6,0.9-5.1
		c0.6-1.5,1.5-2.8,2.9-3.8c1.3-1.1,3.1-1.9,5.3-2.4c2.2-0.6,4.9-0.8,8.1-0.8c2.9,0,5.7,0.3,8.3,0.9c2.6,0.6,4.7,1.4,6.4,2.3v9h-10.6
		c0-1-0.3-1.6-0.8-2c-0.5-0.4-1.2-0.5-2-0.5c-1.1,0-1.9,0.1-2.4,0.4c-0.5,0.3-0.7,0.8-0.7,1.5c0,0.6,0.3,1,0.8,1.3
		c0.5,0.3,1.3,0.6,2.3,0.9c1.9,0.6,3.8,1.3,5.5,2c1.7,0.7,3.2,1.6,4.6,2.6c1.3,1,2.3,2.3,3.1,3.8c0.8,1.5,1.1,3.3,1.1,5.4
		c0,4.4-1.4,7.6-4.2,9.7c-2.8,2.1-6.9,3.2-12.4,3.2c-3.1,0-6.1-0.3-8.9-0.8c-2.9-0.5-5.1-1.2-6.8-1.9v-10h11.1c0,1,0.2,1.8,0.6,2.2
		C174.1,240,175,240.3,176.2,240.3z"/>
	<path class="st0" d="M218.3,210.1H238v8.3h-3V241h3v8.3h-19.7V241h2.6v-8.3h-7.5v8.3h2.6v8.3h-19.7V241h3v-22.6h-3v-8.3h19.7v8.3
		h-2.6v7.6h7.5v-7.6h-2.6V210.1z"/>
	<path class="st0" d="M259.2,241h3l-0.9-4h-6.8l-0.8,4h3v8.3h-17.2V241h2l8.5-30.9h18.3l8.5,30.9h2v8.3h-19.7V241z M255.7,231.7h4.6
		l-2.1-10.1h-0.5L255.7,231.7z"/>
	<path class="st0" d="M297.7,241h3.3v8.3h-20.4V241h3v-22.6h-3v-8.3h23.6c2,0,3.9,0.2,5.6,0.6c1.7,0.4,3.1,1,4.2,1.9
		c1.1,0.9,2,2.1,2.6,3.5c0.6,1.4,0.9,3.2,0.9,5.3c0,2.2-0.4,4.1-1.3,5.8c-0.9,1.6-2.2,2.8-3.9,3.5l0,0.5c3.2,0.5,4.8,2.5,4.8,5.9
		v3.9h2.4v8.3h-16v-11.8c0-1-0.1-1.8-0.3-2.4c-0.2-0.6-0.6-1.1-1.1-1.4c-0.5-0.3-1.1-0.5-1.8-0.7c-0.7-0.1-1.6-0.2-2.7-0.2V241z
		 M300.4,226.6c1,0,1.7-0.3,2.2-0.8c0.5-0.5,0.7-1.3,0.7-2.5v-1.8c0-1.1-0.2-2-0.7-2.5c-0.5-0.5-1.2-0.8-2.2-0.8h-2.7v8.3H300.4z"/>
	<path class="st0" d="M344.7,218.4h-6.1v8h4.4v5.7h-4.4v9h6.1v-8H356v16.2h-34.5V241h3v-22.6h-3v-8.3H356v15.2h-11.3V218.4z"/>
</g>
<polygon class="st1" points="142.1,38.8 172.8,62.8 172.8,47 204.1,47 204.1,170 224.6,170 224.6,47 224.6,30.7 224.6,30.7 
	204.1,30.7 204.1,30.7 172.8,30.7 172.8,14.8 "/>
<polygon class="st1" points="204.1,161.8 193.6,170 224.6,170 224.6,153.7 193.6,153.7 "/>
<polygon class="st1" points="195.4,161.8 164.7,137.8 164.7,153.7 133.5,153.7 133.5,30.7 113,30.7 113,153.7 113,170 113,170 
	133.5,170 133.5,170 164.7,170 164.7,185.8 "/>
<polygon class="st1" points="133.5,38.8 143.9,30.7 113,30.7 113,47 143.9,47 "/>
<rect x="231.5" y="48.4" class="st1" width="10.8" height="139.3"/>
<g>
	<rect x="130.8" y="176.9" class="st1" width="28.6" height="10.8"/>
	<polygon class="st1" points="184.8,176.9 170.9,187.8 234.3,187.8 234.3,176.9 	"/>
</g>
<rect x="120.3" y="162.5" transform="matrix(-0.7071 0.7071 -0.7071 -0.7071 338.3665 209.9283)" class="st1" width="10.8" height="25.1"/>
<polygon class="st1" points="130.7,187.7 130.8,187.8 130.8,187.8 130.8,187.6 "/>
<polygon class="st1" points="130.7,186.2 130.8,186.2 130.8,186.2 130.8,186.1 "/>
</svg>
